<svg width="31" height="31" viewBox="0 0 31 31" fill="none" xmlns="http://www.w3.org/2000/svg">
<path d="M22.6824 0.87868C23.854 -0.292893 25.753 -0.292893 26.9246 0.87868L29.6091 3.56325C30.7807 4.73482 30.7807 6.63386 29.6091 7.80544L22.1707 15.2439L29.6091 22.6824C30.7807 23.854 30.7807 25.753 29.6091 26.9246L26.9246 29.6091C25.753 30.7807 23.854 30.7807 22.6824 29.6091L15.2439 22.1707L7.80544 29.6091C6.63386 30.7807 4.73482 30.7807 3.56325 29.6091L0.87868 26.9246C-0.292893 25.753 -0.292892 23.854 0.87868 22.6824L8.31716 15.2439L0.87868 7.80544C-0.292893 6.63386 -0.292893 4.73482 0.87868 3.56325L3.56325 0.87868C4.73482 -0.292893 6.63386 -0.292893 7.80544 0.87868L15.2439 8.31716L22.6824 0.87868Z" fill="#31C3BD"/>
</svg>
